PathFileType	4	(X/Y/Z)	D:\Share\Shared_Data\Ergonomics\Sit To Stand Pertubation\S2\S2 Cal 01.trc
DataRate	CameraRate	NumFrames	NumMarkers	Units	OrigDataRate	OrigDataStartFrame	OrigNumFrames	
100	100	16	21	mm	100	1	206
Frame#	Time	R_ASIS			R_Pelvis			V_Sacral			L_Pelvis			L_ASIS			Clavical			R_Acromium			L_Acromium			Sternum			Torso			R_Thigh_Med			R_Thigh_Lat			R_Thigh			R_Shank_Med			R_Shank_Lat			R_Shank			R_Heel			R_Toe			RAJC			RHJC			RKJC			
		X1	Y1	Z1	X2	Y2	Z2	X3	Y3	Z3	X4	Y4	Z4	X5	Y5	Z5	X6	Y6	Z6	X7	Y7	Z7	X8	Y8	Z8	X9	Y9	Z9	X10	Y10	Z10	X11	Y11	Z11	X12	Y12	Z12	X13	Y13	Z13	X14	Y14	Z14	X15	Y15	Z15	X16	Y16	Z16	X17	Y17	Z17	X18	Y18	Z18	X19	Y19	Z19	X20	Y20	Z20	X21	Y21	Z21	

1	0	425.36548	1026.5356	130.76517	351.61057	1029.5922	171.18498	218.22153	1039.4694	-0.13161349	332.62073	1040.7166	-171.24327	418.75833	1037.4763	-134.84044	407.35309	1449.8479	-8.4702654	302.25385	1475.1108	197.37601	299.7699	1481.606	-196.91817	452.29739	1289.6482	-11.607951	417.17725	1410.0461	-122.524	340.8576	494.9791	64.63205	335.13101	516.63788	153.92287	430.33081	674.35345	130.05963	304.88858	106.49519	69.332321	283.4938	100.72538	160.69899	302.48792	371.8613	184.5041	204.65273	60.360157	111.41339	441.92032	64.448334	108.95336	294.19119	103.610285	115.0156555	362.2762924	939.6691284	90.80734052	337.994305	505.80849	109.27746
2	0.01	425.38171	1026.5353	130.7056	351.6308	1029.5848	171.10318	218.25893	1039.4668	-0.20945565	332.71237	1040.7079	-171.32536	418.84369	1037.4771	-134.9062	407.31015	1449.845	-8.5245199	302.18161	1475.0879	197.31148	299.75073	1481.5973	-196.99219	452.23386	1289.6591	-11.661366	417.14349	1410.0437	-122.57973	340.87964	494.97894	64.596275	335.15552	516.64075	153.87943	430.36792	674.35498	130.01906	304.892	106.50452	69.317657	283.49591	100.73698	160.6783	302.49371	371.87149	184.48151	204.65704	60.367722	111.40071	441.91632	64.46331	108.95126	294.193955	103.62075	114.9979785	362.3004976	939.6672126	90.73024491	338.01758	505.809845	109.2378525
3	0.02	425.3956	1026.5277	130.64771	351.63174	1029.5862	171.03543	218.29834	1039.433	-0.31433022	332.75644	1040.6945	-171.41417	418.90808	1037.4779	-134.95569	407.24777	1449.8424	-8.5730314	302.07898	1475.0781	197.2569	299.71179	1481.5881	-197.07187	452.20645	1289.6621	-11.715441	417.09558	1410.0438	-122.633	340.90195	494.98163	64.572289	335.16989	516.65228	153.84177	430.38913	674.35547	129.98297	304.90329	106.50673	69.313683	283.50244	100.74531	160.68454	302.50793	371.88589	184.45638	204.66721	60.371372	111.39657	441.91617	64.447594	108.95964	294.202865	103.62602	114.9991115	362.3358851	939.6542729	90.65850856	338.03592	505.816955	109.2070295
4	0.03	425.41522	1026.5309	130.60617	351.64886	1029.583	170.95729	218.33669	1039.4095	-0.40728042	332.84009	1040.7	-171.47978	418.98309	1037.4764	-135.0126	407.19055	1449.8488	-8.6234055	301.98453	1475.0537	197.2063	299.66962	1481.5608	-197.11977	452.2095	1289.6689	-11.780957	417.05319	1410.0367	-122.68612	340.93652	494.98282	64.531982	335.18372	516.65448	153.80287	430.41785	674.35852	129.94867	304.89786	106.50277	69.319397	283.50653	100.75543	160.68219	302.50647	371.8959	184.41982	204.65759	60.376823	111.40074	441.92499	64.44239	108.93982	294.202195	103.6291	115.0007935	362.3725519	939.6451961	90.6024289	338.06012	505.81865	109.167426
5	0.04	425.43756	1026.5226	130.54466	351.68314	1029.5867	170.88702	218.40369	1039.4294	-0.52025545	332.92096	1040.6908	-171.51799	419.07123	1037.4786	-135.08478	407.13132	1449.8502	-8.6694651	301.91357	1475.0353	197.1049	299.63004	1481.5344	-197.18649	452.16888	1289.6914	-11.821376	417.0163	1410.0316	-122.73722	340.96713	494.98578	64.480965	335.19171	516.65808	153.7755	430.43765	674.36346	129.90562	304.90417	106.49715	69.290604	283.5061	100.74821	160.62909	302.52103	371.90195	184.40524	204.65152	60.412849	111.42153	441.91785	64.466476	108.93001	294.205135	103.62268	114.959847	362.3971759	939.6427159	90.52068542	338.07942	505.82193	109.1282325
6	0.05	425.44461	1026.5209	130.48285	351.73331	1029.5967	170.81549	218.46335	1039.4443	-0.62429845	333.01166	1040.6885	-171.56375	419.15604	1037.4832	-135.13943	407.0629	1449.8508	-8.7171936	301.81335	1475.0079	197.03841	299.58899	1481.5098	-197.25975	452.10376	1289.7067	-11.881724	416.97946	1410.0457	-122.78872	341.01645	494.98816	64.437218	335.20789	516.66064	153.73802	430.46088	674.36414	129.86472	304.88797	106.47929	69.270889	283.48492	100.73032	160.60439	302.53122	371.90518	184.36615	204.64163	60.447235	111.40856	441.91904	64.473618	108.91583	294.186445	103.604805	114.9376395	362.4130064	939.6488816	90.44013342	338.11217	505.8244	109.087619
7	0.06	425.48523	1026.5123	130.40742	351.77161	1029.5928	170.75592	218.5367	1039.433	-0.72327352	333.06345	1040.6757	-171.62991	419.21939	1037.473	-135.21643	406.99655	1449.8525	-8.7685919	301.71973	1474.9917	196.95541	299.55414	1481.4985	-197.3181	452.06763	1289.7181	-11.936705	416.94592	1410.05	-122.84425	341.04251	494.9906	64.395004	335.21805	516.65625	153.70457	430.49094	674.36462	129.81409	304.87439	106.47195	69.253334	283.47473	100.72617	160.56902	302.54837	371.92395	184.33791	204.6487	60.453007	111.39612	441.9166	64.464401	108.89658	294.17456	103.59906	114.911177	362.462799	939.6391624	90.35950489	338.13028	505.823425	109.049787
8	0.07	425.50876	1026.5024	130.35614	351.81406	1029.5919	170.68698	218.61108	1039.4379	-0.79268134	333.16354	1040.6716	-171.67783	419.30093	1037.4669	-135.28497	406.93231	1449.8481	-8.8057327	301.61801	1474.9738	196.90556	299.51541	1481.4803	-197.38045	452.07666	1289.7327	-11.992955	416.90509	1410.0623	-122.88801	341.02795	494.97287	64.368729	335.23676	516.6629	153.6622	430.52115	674.36566	129.77046	304.85333	106.46191	69.236763	283.46323	100.71787	160.53979	302.55914	371.93103	184.3022	204.64865	60.489708	111.43636	441.9191	64.481842	108.87296	294.15828	103.58989	114.8882765	362.4934676	939.6294634	90.29064533	338.132355	505.817885	109.0154645
9	0.08	425.52011	1026.4968	130.30264	351.85849	1029.593	170.63513	218.67902	1039.4476	-0.90936083	333.18555	1040.6534	-171.76643	419.37396	1037.4714	-135.35284	406.86105	1449.8628	-8.8390074	301.52185	1474.9314	196.85049	299.47424	1481.4539	-197.44319	452.0177	1289.7473	-12.028605	416.866	1410.0684	-122.93935	341.11026	494.98529	64.329834	335.25128	516.66229	153.62798	430.5473	674.37915	129.71031	304.82208	106.44468	69.221001	283.45038	100.72077	160.50584	302.56277	371.91672	184.27623	204.63733	60.501926	111.42571	441.92499	64.503571	108.86178	294.13623	103.582725	114.8634205	362.5154276	939.6244965	90.21698618	338.18077	505.82379	108.978907
10	0.09	425.54672	1026.491	130.2347	351.93152	1029.5928	170.55672	218.7475	1039.437	-0.99137878	333.27216	1040.651	-171.81898	419.42426	1037.4752	-135.40929	406.79306	1449.8591	-8.8805151	301.4342	1474.9116	196.80995	299.44608	1481.4432	-197.52016	451.95737	1289.7482	-12.072713	416.83557	1410.0708	-122.97472	341.10916	494.97467	64.293655	335.26953	516.65723	153.59096	430.57956	674.38391	129.66023	304.84796	106.45136	69.207024	283.46167	100.70667	160.48759	302.6012	371.94128	184.24748	204.6256	60.536465	111.42674	441.90561	64.493637	108.85568	294.154815	103.579015	114.847307	362.5567487	939.6207714	90.14193916	338.189345	505.81595	108.9423075
11	0.1	425.58109	1026.4814	130.17848	351.94565	1029.59	170.53236	218.80499	1039.4298	-1.0627677	333.34317	1040.6388	-171.86256	419.47147	1037.4637	-135.47563	406.72769	1449.8505	-8.9316711	301.34988	1474.8723	196.72513	299.40414	1481.401	-197.62317	451.90582	1289.7533	-12.090929	416.80124	1410.0624	-123.00833	341.14923	494.97208	64.254906	335.28513	516.66644	153.55949	430.61343	674.37616	129.62042	304.81766	106.42132	69.189896	283.44247	100.69378	160.45543	302.60159	371.94611	184.22116	204.62721	60.559681	111.42648	441.91388	64.500885	108.85	294.130065	103.55755	114.822663	362.5952227	939.6090337	90.08159449	338.21718	505.81926	108.907198
12	0.11	425.60007	1026.4746	130.12172	351.96191	1029.5978	170.46471	218.87395	1039.4395	-1.1466213	333.42426	1040.6415	-171.8878	419.52316	1037.4598	-135.54698	406.67206	1449.8379	-8.9744072	301.26486	1474.8306	196.61655	299.38501	1481.3818	-197.70511	451.87714	1289.7556	-12.136209	416.75534	1410.0652	-123.04118	341.15463	494.96951	64.22187	335.3074	516.65833	153.52281	430.65738	674.38885	129.56238	304.82028	106.43282	69.177795	283.43332	100.68687	160.43356	302.62054	371.95804	184.2533	204.62366	60.590611	111.45576	441.92343	64.521645	108.81893	294.1268	103.559845	114.8056775	362.619778	939.6032409	90.01388434	338.231015	505.81392	108.87234
13	0.12	425.60052	1026.4779	130.05595	352.01205	1029.6007	170.43692	218.93608	1039.4604	-1.2549578	333.48672	1040.64	-171.94623	419.5835	1037.4598	-135.59679	406.62344	1449.8387	-9.0299015	301.18674	1474.8019	196.53008	299.35376	1481.3568	-197.81966	451.8465	1289.7567	-12.196937	416.72342	1410.0601	-123.08744	341.18536	494.96753	64.194405	335.32669	516.65375	153.48785	430.69202	674.39166	129.50983	304.80078	106.42948	69.16703	283.43539	100.68457	160.43204	302.62741	371.96271	184.21642	204.63203	60.603958	111.43941	441.90646	64.520584	108.82806	294.118085	103.557025	114.799535	362.6282347	939.6171256	89.93829872	338.256025	505.81064	108.8411275
14	0.13	425.60919	1026.4774	129.99438	352.0209	1029.5908	170.397	219.02623	1039.469	-1.2318614	333.52402	1040.6338	-171.98286	419.63657	1037.4475	-135.63814	406.57086	1449.8435	-9.0582476	301.10168	1474.7797	196.45868	299.32269	1481.3511	-197.82095	451.79648	1289.7725	-12.263031	416.69073	1410.0653	-123.12904	341.20941	494.96658	64.157784	335.34531	516.65137	153.45441	430.72226	674.3905	129.45988	304.77545	106.40144	69.157616	283.41876	100.68364	160.40353	302.65988	371.98306	184.21649	204.61182	60.612083	111.43926	441.91904	64.524933	108.81293	294.097105	103.54254	114.780573	362.6484624	939.6273626	89.87397692	338.27736	505.808975	108.806097
15	0.14	425.63855	1026.4865	129.94176	352.07635	1029.6002	170.31711	219.06195	1039.4401	-1.273389	333.57138	1040.6471	-172.01901	419.67151	1037.4585	-135.68889	406.42108	1449.8575	-9.0394697	301.02557	1474.7634	196.40826	299.28015	1481.3419	-197.86597	451.78113	1289.76	-12.342875	416.66467	1410.0631	-123.16404	341.23834	494.95569	64.124992	335.37259	516.6485	153.4173	430.76074	674.39484	129.42981	304.80264	106.40889	69.148247	283.43509	100.69052	160.40163	302.64728	371.96686	184.18684	204.62431	60.617256	111.46938	441.90704	64.530205	108.78697	294.118865	103.549705	114.7749385	362.6964318	939.6256666	89.81886583	338.305465	505.802095	108.771146
16	0.15	425.65961	1026.4783	129.89326	352.0925	1029.6016	170.27449	219.08507	1039.4221	-1.3278056	333.63065	1040.6434	-172.0592	419.70322	1037.4598	-135.72502	406.36221	1449.8606	-9.059062	300.95734	1474.7168	196.30975	299.2681	1481.3396	-197.9167	451.74445	1289.7655	-12.372723	416.62787	1410.0825	-123.19753	341.29016	494.96301	64.097069	335.39032	516.63525	153.38998	430.80157	674.39355	129.39027	304.78839	106.41282	69.146614	283.42944	100.69482	160.39944	302.67307	371.96008	184.15308	204.61882	60.633263	111.44846	441.91125	64.523026	108.79832	294.108915	103.55382	114.773027	362.725018	939.6180786	89.76654183	338.34024	505.79913	108.7435245
